<svg width="612" height="408" version="1.1" xmlns="http://www.w3.org/2000/svg" desc="Created with imagetracer.js version 1.2.6" ><path fill="rgb(0,0,0)" stroke="rgb(0,0,0)" stroke-width="1" opacity="0" d="M 0 0 L 612 0 L 612 408 L 0 408 L 0 0 Z M 305 81 L 283 93 L 280 93 L 274 97 L 271 97 L 252 106 L 221 115 L 213 115 L 205 117 L 192 117 L 190 119 L 190 130 L 195 151 L 195 157 L 209 203 L 217 219 L 217 222 L 222 233 L 232 251 L 244 269 L 258 286 L 292 317 Q 294 316 293 319 L 297 320 L 304 326 Q 309 327 312 324 L 334 306 Q 351 291 364 273 Q 363 270 366 271 L 386 240 L 403 203 L 404 197 L 408 189 L 408 185 L 413 172 L 413 167 L 417 155 L 417 149 L 422 128 L 422 119 L 421 117 L 407 117 L 400 115 L 392 115 Q 383 111 373 110 L 339 97 L 308 81 L 305 81 Z " /><path fill="rgb(0,0,0)" stroke="rgb(0,0,0)" stroke-width="1" opacity="0" d="M 303.5 122 L 308.5 122 Q 311.5 125 317.5 125 L 325.5 129 L 340.5 133 L 348.5 137 Q 357.3 137.7 362.5 142 L 366.5 142 L 371.5 145 L 385 149 L 381 161.5 L 381 166.5 L 377 176.5 L 377 180.5 L 375.5 182 L 360.5 174 L 355 173 L 355 168.5 L 358 161.5 L 355.5 159 L 341.5 155 L 337.5 155 L 314.5 147 L 301.5 146 L 275.5 155 L 271.5 155 L 262.5 159 L 255 160 Q 257 177.7 265.5 190 L 293.5 182 L 307.5 181 L 308.5 182 L 318.5 182 L 334.5 187 L 339.5 187 L 363.5 196 L 369 199.5 L 359 220.5 L 346 240.5 L 346 242.5 Q 331.4 265.4 311.5 283 L 305.5 286 L 293 276.5 Q 293.8 274.3 291.5 275 L 271 250.5 L 268 244.5 L 275.5 240 L 279.5 240 L 290.5 236 L 303.5 253 L 306.5 254 L 310 251.5 L 311 248 L 314 246.5 L 332 219.5 L 335 211 L 326.5 208 L 320.5 208 L 309.5 205 L 302.5 205 L 292.5 208 L 286.5 208 Q 268 213.2 253 221 L 235 182.5 L 227 155.5 L 227 149 L 303.5 122 Z " /><path fill="rgb(12,93,158)" stroke="rgb(12,93,158)" stroke-width="1" opacity="0.9411764705882353" d="M 305.5 83 Q 337.5 101 375.5 113 L 398.5 118 L 417.5 119 L 420 120 Q 405.1 237.3 335.5 301 L 319.5 315 L 315 317 Q 316.1 319.7 313.5 319 L 307.5 324 L 304.5 324 Q 280.3 307.3 261 285.5 Q 243.9 267.1 231 244.5 L 214 209.5 L 198 159.5 L 191 121.5 L 193.5 119 L 207.5 119 L 228.5 115 L 254.5 107 Q 281.8 96.8 305.5 83 Z M 303 120 L 269 133 L 263 134 Q 247 142 229 146 L 224 150 L 232 181 L 244 209 L 253 223 L 256 223 L 278 213 L 304 207 L 321 209 L 332 212 L 332 216 L 311 247 L 307 251 L 304 251 L 295 238 L 291 234 L 271 240 L 265 244 L 270 253 L 287 274 L 304 288 L 308 288 L 314 284 Q 351 250 371 199 L 360 192 L 343 186 L 312 179 L 295 180 L 267 187 Q 259 176 257 162 L 303 148 L 310 148 Q 314 151 321 151 L 331 155 L 352 160 L 355 163 L 352 172 L 358 176 Q 368 178 375 184 L 378 184 L 387 149 L 384 146 Q 345 135 310 120 L 303 120 Z " /><path fill="rgb(18,78,130)" stroke="rgb(18,78,130)" stroke-width="1" opacity="0.7294117647058823" d="M 304.5 81 L 307.5 81 L 338.5 97 L 372.5 110 Q 383.4 111.1 391.5 115 L 399.5 115 L 406.5 117 L 420.5 117 L 422 118.5 L 422 127.5 L 417 148.5 L 417 154.5 L 413 166.5 L 413 171.5 L 408 184.5 L 408 188.5 L 404 196.5 L 403 202.5 L 386 239.5 L 365.5 271 Q 363.3 270.3 364 272.5 Q 350.7 291.2 333.5 306 L 311.5 324 Q 309.2 326.7 303.5 326 L 296.5 320 L 293 319 Q 294.1 316.3 291.5 317 L 258 285.5 L 244 268.5 L 232 250.5 L 222 232.5 L 217 221.5 L 217 218.5 L 209 202.5 L 195 156.5 L 195 150.5 L 190 129.5 L 190 118.5 L 191.5 117 L 204.5 117 L 212.5 115 L 220.5 115 L 251.5 106 L 270.5 97 L 273.5 97 L 279.5 93 L 282.5 93 L 304.5 81 Z M 306 83 Q 282 97 255 107 L 229 115 L 208 119 L 194 119 L 191 122 L 198 160 L 214 210 L 231 245 Q 244 267 261 286 Q 280 307 305 324 L 308 324 L 314 319 Q 316 320 315 317 L 320 315 L 336 301 Q 405 237 420 120 L 418 119 L 399 118 L 376 113 Q 337 101 306 83 Z " /><path fill="rgb(18,78,130)" stroke="rgb(18,78,130)" stroke-width="1" opacity="0.7294117647058823" d="M 302.5 120 L 309.5 120 Q 344.9 134.6 383.5 146 L 387 148.5 L 378 184 L 374.5 184 Q 367.7 178.3 357.5 176 L 352 171.5 L 355 162.5 L 351.5 160 L 330.5 155 L 320.5 151 Q 313.5 151 309.5 148 L 302.5 148 L 257 162 Q 259.4 176.4 266.5 187 L 294.5 180 L 311.5 179 L 342.5 186 L 359.5 192 L 371 198.5 Q 350.7 249.7 313.5 284 L 307.5 288 L 303.5 288 L 287 273.5 L 270 252.5 L 265 243.5 L 270.5 240 L 290.5 234 L 295 237.5 L 304 251 L 306.5 251 L 311 246.5 L 332 215.5 L 332 212 L 320.5 209 L 303.5 207 L 277.5 213 L 255.5 223 L 252.5 223 L 244 208.5 L 232 180.5 L 224 149.5 L 228.5 146 Q 247.1 141.6 262.5 134 L 268.5 133 L 302.5 120 Z M 304 122 L 227 149 L 227 156 L 235 183 L 253 221 Q 268 213 287 208 L 293 208 L 303 205 L 310 205 L 321 208 L 327 208 L 335 211 L 332 220 L 314 247 L 311 248 L 310 252 L 307 254 L 304 253 L 291 236 L 280 240 L 276 240 L 268 245 L 271 251 L 292 275 Q 294 274 293 277 L 306 286 L 312 283 Q 331 265 346 243 L 346 241 L 359 221 L 369 200 L 364 196 L 340 187 L 335 187 L 319 182 L 309 182 L 308 181 L 294 182 L 266 190 Q 257 178 255 160 L 263 159 L 272 155 L 276 155 L 302 146 L 315 147 L 338 155 L 342 155 L 356 159 L 358 162 L 355 169 L 355 173 L 361 174 L 376 182 L 377 181 L 377 177 L 381 167 L 381 162 L 385 149 L 372 145 L 367 142 L 363 142 Q 357 138 349 137 L 341 133 L 326 129 L 318 125 Q 311 125 309 122 L 304 122 Z " /></svg>